<?xml version="1.0" encoding="utf-8"?>
<!-- Generator: Adobe Illustrator 21.0.2, SVG Export Plug-In . SVG Version: 6.00 Build 0)  -->
<svg version="1.1" id="Layer_1" xmlns:ev="http://www.w3.org/2001/xml-events"
	 xmlns="http://www.w3.org/2000/svg" xmlns:xlink="http://www.w3.org/1999/xlink" x="0px" y="0px" viewBox="0 0 809.6 331.3"
	 style="enable-background:new 0 0 809.6 331.3;" xml:space="preserve">
<style type="text/css">
	.st0{fill:#4A4A49;stroke:#000000;stroke-width:5.0545;stroke-linecap:round;stroke-linejoin:round;stroke-miterlimit:10;}
	.st1{fill:#333332;stroke:#3F3F3E;stroke-width:3;stroke-linecap:round;stroke-linejoin:round;stroke-miterlimit:10;}
	.st2{fill:#A8A8A7;stroke:#020203;stroke-width:5.0545;stroke-linecap:round;stroke-linejoin:round;stroke-miterlimit:10;}
	.st3{fill:#E3E3E3;}
	.st4{fill:#C6C6C6;}
	.st5{fill:#4A4A49;stroke:#020203;stroke-width:5.0545;stroke-linecap:round;stroke-linejoin:round;stroke-miterlimit:10;}
</style>
<g>
	<path class="st0" d="M514.2,20.6c-0.2-5.1-2.2-11-7.4-12.6c-6.6-1.9-14.5-1.6-21.3-2.3c-9.6-1-19.2-2.3-28.8-3.1
		c-4.2-0.3-6.7,0-9.9,3.2c-4.2,4.2-6.8,10.6-7.1,16.5c-0.3,6,2.9,11.4,2.7,17.3c-0.2,12.2-9.1,24.4-12.9,35.8
		c-4.2,12.8-5.8,25.8-0.4,38.5c-12,0.3-23.3,1.3-35.1-1.4c-9.6-2.2-19.2-3.8-25.4,5.8c-4.4,6.8-4.4,16,4,19.2
		c10.9,4.1,23.1,6,34.4,9c5.7,1.5,12.3,4.4,18.3,4.2c4.7-0.2,9.4-2.3,13.9-3.5c11.4-2.9,23.4-0.8,34.7-4.4c9.3-3,16.4-9.2,18.6-19.1
		c2.4-10.7-1.7-21.3,1.3-32.2c3.2-11.7,9.5-22.3,13.3-33.8C511.1,45.9,514.1,33.2,514.2,20.6z"/>
	<path class="st1" d="M512.7,17.9c-3.4-10.6-10.1-3.5-13,3.5c-3.8,9,0.5,16.1,0.6,25.1c0,9.5-4.9,18-8.5,26.5
		c-3.5,8.3-6.7,16.9-8.3,25.8c-2,11-0.1,20.8,4.9,30.7c-9.3,0.2-18.6,1-27.9,0.9c-8.7-0.1-17.7-4.8-26.2-3.9
		c-7.2,0.8-16,10.9-11.9,18.3c3.8,6.7,16.5-0.4,22-1.3c15.4-2.6,39.9,1.9,46.5-17.2c3-8.6-0.3-17.6,0.4-26.5c0.7-9,4.6-17.7,8-25.9
		C506.2,57.4,515.8,36.4,512.7,17.9z"/>
</g>
<g>
	<path class="st0" d="M596.8,30.5c-0.1-5.9-2.1-12.3-8.3-13.7c-7.2-1.6-15.2-1.6-22.6-2.4c-11-1.2-22.1-2.4-33.1-3.5
		c-4-0.4-6.9-0.9-10.3,1.7c-4.7,3.6-7.6,10.3-8.7,16c-1.2,6.7,1.5,12.4,2,19c1,13.5-8.8,27.3-13,39.7c-4.7,14.1-7.1,28.7-1.5,42.9
		c-13.6,0.5-25.5,1.2-38.9-1.9c-10.1-2.3-19.3-0.7-24.2,9.7c-3.4,7.3-2.5,15.6,5.7,18.3c15.1,5,31.2,8.1,46.6,12.2
		c4.3,1.1,8.9,3,13.3,3c5-0.1,10-2.6,14.7-3.9c10.9-3.1,22.6-1.4,33.6-4.7c11-3.3,18.9-10.8,21.1-22.3c2.2-11.5-1.4-22.7,1.8-34.2
		c3.6-12.9,10.3-24.6,14.3-37.3C593.2,56.5,596.5,43.5,596.8,30.5z"/>
	<path class="st1" d="M595.4,27.4c-3.8-11.9-10.6-2.8-13.5,4.8c-3.7,9.7,1,18,0.4,27.7c-0.6,9.7-5.6,18.5-9.2,27.3
		c-3.6,8.8-7,18-8.7,27.4c-2.1,11.7-0.6,22.2,4.4,32.9c-9.5,0.3-19,1.4-28.4,1.4c-5,0-9.7-0.6-14.5-1.8c-4.7-1.2-9.5-3-14.3-1.4
		c-6.4,2-14.5,13.9-9.2,20.3c4.5,5.6,17.3-2.1,22.9-3c17.1-2.7,41.4,0.6,46.8-21.2c2.1-8.5-0.5-17.4,0.2-26c0.8-9.7,4.9-19.1,8.6-28
		C588.3,69.6,597.9,47.7,595.4,27.4z"/>
</g>
<g>
	<path class="st0" d="M806.9,51c-1.3-6.3-2.6-10.9-9.5-11.9c-10.2-1.5-20.6-2.2-30.9-3.3c-13.5-1.4-27-2.9-40.4-4.3
		c-4.7-0.5-10.9-2.4-15.4-0.1c-13.3,7-12.4,26.3-10.8,38.6c2.2,16.6-8.5,32.9-13.7,48.1c-5.7,16.7-9.8,35.1-3.9,52.4
		c-7,0.6-14.1,1.6-21.1,1.8c-7.7,0.3-14.4-2.5-21.9-3.5c-12.1-1.7-21,7.6-23.3,18.9c-2.2,11,4.3,14.6,13.4,16.9
		c20.1,5.2,40.2,10.5,60.3,15.7c4.9,1.3,10.2,3.4,15.2,3.9c5.4,0.6,10.7-2.4,15.5-4.5c12.9-5.4,27.4-3.3,40-9.9
		c25.8-13.5,15.2-44.5,22.2-67.4c4.2-13.9,10.6-26.9,14.9-40.7c4.2-13.5,7.8-27.5,9.3-41.5C807,57.2,807.2,54,806.9,51z"/>
	<path class="st1" d="M806.1,51.7c-0.8-3.7-1.6-9.3-6.3-6.3c-3.7,2.3-5.9,8.5-7.3,12.4c-3.9,10.9,0,20.8-1,31.9
		c-1,11.5-6.4,22.1-10.5,32.7c-4,10.6-7.8,21.4-10,32.6c-2.6,13.3-1.9,25.8,2.5,38.5c-10.5,0.9-21.1,3.1-31.7,3
		c-9.4-0.1-20.5-7.4-28.7-0.3c-4.3,3.7-12.7,19.2-5.1,23.7c3.3,1.9,8.8-1.3,11.9-2.6c4.4-1.8,8.5-3.5,13.2-4.1
		c11-1.6,23.1-2,32.4-8.7c8.5-6.2,12.3-16.2,12.7-26.5c0.4-10-0.5-19.6,1.9-29.5c2.3-9.6,5.8-18.8,9.4-28
		C797.9,99.3,807.1,74.9,806.1,51.7z"/>
</g>
<g>
	<path class="st0" d="M693.1,39.8c-0.4-5.8-2.5-11.5-8.5-12.9c-8.2-1.8-17.2-1.8-25.5-2.7c-12.3-1.3-24.6-2.6-36.8-3.9
		c-4.4-0.5-8.9-1.8-12.9,0.6c-5.3,3.3-8.5,10.7-10,16.5c-1.8,7.3,0.4,13.5,1.2,20.7c1.5,14.6-8.5,29.1-13.1,42.4
		c-5.4,15.6-8.6,32.1-2.8,48c-6.9,0.4-13.8,1.2-20.7,1.3c-7.5,0.1-13.8-1.9-21.1-3.3c-10.6-2-19.2,2.9-23,13.2
		c-3.1,8.5-0.7,15.9,8.2,18.3c17.7,4.7,35.5,9.3,53.3,13.9c4.4,1.2,9.2,3.2,13.8,3.5c5.6,0.4,11.3-2.9,16.5-4.6
		c12.1-3.9,25.3-1.8,37.2-7c10.9-4.8,17.6-14.3,18.9-26.1c1.3-11.6-1.1-22.3,2.1-33.9C677.5,96.4,694.9,69.6,693.1,39.8z"/>
	<path class="st1" d="M692,38.6c-0.8-3.1-1.5-7.7-5.6-6.5c-4,1.2-6.7,8.4-8,11.8c-3.9,10.5,0.7,20.1-0.3,30.7
		c-1,10.3-6.1,19.7-9.8,29.2c-4,10.1-7.6,20.5-9.4,31.2c-2,11.8-0.6,22.6,3.9,33.6c-10,0.6-20,1.9-30.1,2
		c-9.2,0.1-20.6-6.8-29.1-2.2c-5.6,3-13.4,16.1-7.6,21.9c4.9,4.9,17.8-3.4,23.5-4.3c19.4-3.3,44-2,47.4-27.2
		c1.2-9.3-1.1-18.6,0.6-27.9c1.7-9.5,5.4-18.8,9-27.7C684.3,83.3,693.7,60.5,692,38.6z"/>
</g>
<g>
	<path class="st2" d="M708.7,153.4c-5.3-14.5-25.5-17.6-38.9-20.3c-13.5-2.7-27-5.3-40.5-7.9c-55.1-10.7-110.2-21.4-165.3-32.1
		c-30.9-6-62.1-14.1-93.7-15.4c-38-1.5-75.2,4.5-112.7,9.5c-23,3-46,6-69,9.1c-7.3,1-14.6,2.1-21.8,3.8c-7.1,1.7-18,3.9-22,10.7
		c-2,3.4-1.9,10.1-0.7,13.7c1.2,3.6,5,4.9,8.4,6.1c3.6,1.3,7.3,2.4,10.9,3.6c20.6,6.8,41.3,13.7,61.9,20.5
		c51.1,16.9,102.1,33.9,153.2,50.8c11.2,3.7,22.3,7.8,33.8,10.3c19,4.2,38.6,5.8,58,6.2c18.7,0.4,37.7-0.4,56.2-3.1
		c15.3-2.2,30.1-6.3,45-10.1c27.3-7,54.6-14.1,81.9-21.1c14.8-3.8,31.4-6.3,45.5-12.6c3.6-1.6,8.1-3.9,9.2-7.9
		C709.4,163.5,709.3,157.3,708.7,153.4z"/>
</g>
<g>
	<polygon class="st3" points="471.8,197.5 462,197.2 452.4,196.7 443.2,195.9 434.3,194.9 426,193.7 418.2,192.2 411.1,190.7 
		404.9,188.9 158,113.1 155.2,112.1 153.1,111.1 151.9,110.1 151.4,109.4 151.3,109 151.6,108.3 152.5,107.4 154.2,106.3 
		156.5,105.1 159.6,103.9 163.1,102.8 167.2,101.7 171.8,100.6 176.8,99.7 182.2,98.8 188,98 312.6,81.6 317.8,80.9 323.2,80.4 
		328.9,79.9 334.7,79.6 340.6,79.3 346.6,79.1 352.5,79 358.5,79 364.4,79.1 370.1,79.3 375.7,79.5 381,79.9 386.1,80.4 390.8,80.9 
		395.2,81.5 399.1,82.2 669,134.7 675,136 680.4,137.3 685.3,138.8 689.6,140.3 693.2,141.9 696,143.5 698.1,145.1 699.4,146.6 
		699.9,147.8 699.8,149 699.1,150.2 697.5,151.7 695.1,153.2 691.7,154.8 687.5,156.2 682.5,157.6 542.7,191.1 535.5,192.7 
		527.7,194 519.2,195.2 510.3,196.1 501,196.9 491.4,197.3 481.6,197.5 	"/>
	<path class="st4" d="M358.5,80.5l5.8,0.1l5.7,0.2l5.5,0.3l5.3,0.4l5,0.5l4.7,0.5l4.3,0.6l3.9,0.7l269.8,52.5l5.9,1.3l5.4,1.3
		l4.8,1.4l4.2,1.5l3.5,1.5l2.7,1.5l1.9,1.4l1,1.2l0.3,0.7l0,0.5l-0.4,0.8l-1.3,1.2l-2.2,1.4l-3.2,1.4l-4.1,1.4l-5,1.3l-139.8,33.6
		l-7.1,1.5l-7.8,1.4l-8.4,1.1l-8.9,0.9l-9.3,0.7l-9.6,0.5l-9.7,0.2l-9.8,0l-9.7-0.3l-9.5-0.5l-9.2-0.8l-8.8-1l-8.3-1.2l-7.7-1.4
		l-7-1.6l-6.3-1.7l-246.8-75.8l-2.7-1l-1.9-0.9l-1-0.7l0,0l0.5-0.5l1.5-1l2.2-1.1l2.9-1.1l3.5-1.1l4-1.1l4.5-1l5-1l5.4-0.9l5.7-0.8
		l124.7-16.4l5.2-0.6l5.4-0.5l5.6-0.5l5.8-0.4l5.9-0.3l6-0.2l6-0.1L358.5,80.5 M358.5,77.5l-6,0l-6,0.1l-6,0.2l-5.9,0.3l-5.8,0.4
		l-5.7,0.5l-5.5,0.5l-5.2,0.6L187.7,96.5l-5.8,0.8l-5.4,0.9l-5.1,1l-4.6,1.1l-4.2,1.1l-3.7,1.2l-3.1,1.2l-2.5,1.2l-1.9,1.3l-1.2,1.3
		l-0.5,1.3l0.2,1.2l0.9,1.2l1.6,1.2l2.3,1.1l3,1.1l246.9,75.8l6.4,1.8l7.1,1.6l7.8,1.4l8.4,1.2l8.9,1l9.3,0.8l9.6,0.5l9.8,0.3l9.9,0
		l9.8-0.2l9.7-0.5l9.4-0.7l9-0.9l8.5-1.2l7.9-1.4l7.2-1.6L682.9,159l5.1-1.4l4.3-1.5l3.5-1.6l2.7-1.7l1.8-1.7l1-1.8l0.1-1.8
		l-0.7-1.8l-1.5-1.8l-2.3-1.7l-3-1.7l-3.7-1.6l-4.4-1.6l-5-1.5l-5.5-1.4l-6-1.3L399.4,80.7l-4-0.7l-4.4-0.6l-4.8-0.5l-5.1-0.5
		l-5.4-0.4l-5.6-0.3l-5.8-0.2L358.5,77.5L358.5,77.5z"/>
</g>
<g>
	<path class="st5" d="M201.9,180.3c-1.2-7.8-6.7-12.4-13.7-15.1c-11.3-4.3-22.8-8.2-34.1-12.4c-6.9-2.5-12.6-5-20-3.1
		c-8.7,2.2-16.3,7.9-24.4,11.5c-4.4-17.3-15.5-30.8-25.6-45.1c-4.6-6.5-8.3-13.3-7.3-21.5c1-8.1,4.2-15.2,1.5-23.4
		c-6.2-18.7-24.9-20.6-41.4-24.8c-6.6-1.7-16.2-6.1-23.2-4.7c-7.4,1.5-11,10.2-11,17c0,15.7,8.9,33.6,17,46.7
		c8.5,13.7,23.2,25.5,26.8,41.9c3.3,14.6-4.7,31.5,11.3,41c6.7,4,14.4,6.8,21.4,10.2c7.7,3.7,15.4,8.4,23.5,11
		c16.3,5.4,34.7-1.6,50.3-6.3c8.7-2.6,16.6-4.6,25.6-5.6c7.7-0.8,16.7-1.2,21.3-8.4C201.5,186.5,202.1,183.5,201.9,180.3z"/>
	<path class="st1" d="M199.2,179.9c-7.3-21.8-33.9-0.5-45.5,4.4c-16.9,7.1-35.4,11.1-52.9,16.6c6.5-13.5,9.8-26.9,5.1-41.7
		c-4.4-13.9-13.7-25.8-22.2-37.3c-4.3-5.9-8.7-12-9.9-19.4c-1.3-7.5,1.9-14,2.5-21.4c0.8-9.1-12.6-32-23.4-22.2
		c-10.1,9.2-1.1,29.9,3.1,39.9c6,14.4,14.4,25.5,23.2,38.2c9,12.9,15.5,24.1,14.8,40.3c-0.3,7.1-1.2,14.4,2.6,20.8
		c3.7,6.3,10.5,8.6,17.4,9.2c17.8,1.3,34.8-7,51.7-11.2C174.8,193.9,203.6,196.3,199.2,179.9z"/>
</g>
<g>
	<path class="st5" d="M273.6,207.3c-2.1-14.3-16.5-17.1-28-21.2c-10.7-3.9-21.4-7.8-32.1-11.6c-5.2-1.9-9.6-3.3-15.2-2.1
		c-8.2,1.7-15.4,6.6-22.6,10.6c-6.8-18-18.2-31.8-28-48c-4.6-7.7-5.9-14.9-4-23.6c2-9.3,3.6-17.4-0.9-26.2
		C133,65.8,108.5,64.7,90,60c-6.4-1.6-15.7-5.9-22.3-3.1c-7.4,3.1-9.9,12.9-9.5,20.1c1,17.5,9.8,36.9,19.2,51.4
		c9.6,14.9,26.1,29.2,26.9,48c0.4,8.9-2.1,18,1,26.6c3,8.3,8.7,12.2,16.4,15.8c8,3.7,15.9,7.6,23.8,11.3c7.9,3.8,16.1,8.8,24.5,11.1
		c18.8,5.3,40.1-4.4,57.7-10.2c9-3,17.7-4,27-5.5c6.8-1.1,13.5-3,17-9.4C273.3,213.4,273.8,210.5,273.6,207.3z"/>
	<path class="st1" d="M271,206.9c-6.5-19.4-26.9-5.9-37.8,0.4c-12.8,7.4-26.8,11.7-40.8,16.1c-8.4,2.7-16.7,5.5-25.1,8.4
		c6.9-14.9,10.7-29.6,5.8-45.9c-4.6-15.3-14.4-28.3-23.5-41.1c-4.6-6.4-9-13.3-10-21.3c-1.1-8,2.4-15.1,3.1-23
		c0.6-7.4-2.6-14.6-7.7-19.8c-4.8-5-13.2-9.7-18.2-2.7c-8.4,11.8-0.5,31.1,4.2,42.9c2.9,7.3,6.1,14.7,10.1,21.5
		c4,6.7,9.1,12.5,13.4,18.9c9.6,14.2,16.7,26.8,15.7,44.3c-0.8,14.9,0.3,30.8,18.6,32.8c16.4,1.8,33.6-5.6,48.8-10.7
		c7-2.3,13.6-4.1,20.9-5c6.4-0.8,15.7-0.7,20.1-6.1C271.1,214,271.9,210.5,271,206.9z"/>
</g>
<g>
	<path class="st5" d="M360.3,240.2c-2.3-15.6-15.9-18.4-28.8-23c-12.1-4.4-24.1-8.7-36.2-13.1c-5.3-1.9-11.1-5-16.9-5.2
		c-8.6-0.3-16,4.6-23.1,8.8c-2.8-9.4-9.1-18.9-14.3-27.1c-5.4-8.5-12.7-16.4-15.7-26.2c-2.9-9.5,0.2-17.7,1.8-27
		c1.7-9.4-0.5-18.2-6-26c-5.2-7.3-11.9-11-20.4-13.2c-14.3-3.6-28.6-7.3-42.9-10.9c-6.5-1.7-15-5.5-21.6-2.5
		c-7.7,3.5-10.6,14.2-10.3,21.9c0.8,19.1,9.7,40.3,19.6,56.3c10.2,16.6,27.6,32.2,28.3,52.9c0.3,9.7-2.5,19.7,0.7,29.2
		c3.3,9.7,10.3,13.9,19.2,18c9.1,4.2,18,8.5,27,12.9c9.2,4.5,18.7,10,28.4,13.3c19,6.4,40.8-3.9,58.4-10.4
		c9.7-3.6,18.6-6.1,28.9-7.8c7.8-1.3,16-2.7,20.8-9.6C359.5,248,360.4,244.4,360.3,240.2z"/>
	<path class="st1" d="M357.8,239.6c-7-21-27.9-5.8-39.5,1.4c-13.3,8.4-28.2,13.5-43,18.7c-8.9,3.2-17.7,6.5-26.6,9.9
		c7.4-16.2,11.7-32.4,7-50.1c-4.2-16-13.8-30.1-22.9-43.6c-5-7.4-10-14.9-11.4-23.9c-1.4-8.8,1.6-16.5,2.9-25
		c1.3-8.5-0.9-16.2-6.4-22.8c-4.1-4.9-12.3-11.8-18.6-6.4c-12.2,10.7-3.1,35.4,1.2,47.7c5.7,16.7,14.2,30.1,23.9,44.6
		c9.6,14.4,18.3,28.9,17.6,46.8c-0.6,15.8-3.6,36.9,17.6,39.6c16.9,2.2,34.5-6.1,49.9-11.7c8.1-3,15.6-5.6,24.1-7
		c7.2-1.1,17.5-1.3,22.2-7.8C358,246.9,358.5,243.3,357.8,239.6z"/>
</g>
<g>
	<path class="st5" d="M467.1,280.5c-2-16.8-16-19.9-29.7-24.8c-13-4.7-26-9.4-39-14.1c-7.9-2.9-16-6.5-24.1-8.7
		c-7.1-1.9-14,0.6-20.3,3.8c-4.6-10.4-10.7-19.9-16.8-29.5c-5.6-8.8-11.1-18.5-10.5-29.4c0.6-10.3,5.2-19.9,4.5-30.4
		c-0.7-10.1-6.6-20.8-14.6-27.1c-7-5.4-16.6-6.6-24.9-8.7c-16.3-4.2-32.6-8.3-48.9-12.5c-7-1.8-15.4-5.5-22.2-1.5
		c-7.7,4.4-10.6,15.6-10.4,23.8c0.5,21.3,9.7,45.5,20.5,63.6c10.8,18,28.5,35.5,28.6,57.8c0,11.1-3.1,22.5,0.7,33.3
		c3.6,10.3,11.8,14.5,21.2,18.8c20.5,9.5,40.8,19.7,61.3,29.1c10.9,5,20,5.9,31.7,3.6c11.3-2.3,21.7-6.9,32.2-11.4
		c11.3-4.8,21.6-9.2,33.7-11.6c9.6-2,19.4-3.9,24.5-13.1C466.4,288,467.2,284.4,467.1,280.5z"/>
	<path class="st1" d="M464.8,279.9c-7.4-23.3-29.7-4.9-41.6,3.4c-14,9.7-30,15.9-45.7,22.3c-9,3.7-17.9,7.6-26.8,11.5
		c7.9-18.1,13-36.3,8.4-56.1c-4.1-17.8-13.9-33.4-23.4-48.7c-5.1-8.2-10-16.5-11.4-26.2c-1.3-9.1,1.3-17.2,3.1-26.1
		c1.8-9.1,0.8-17.2-4.1-25.2c-3.7-6-13-15.7-20.6-10.2c-7.1,5.1-7.8,17.2-7,25c0.9,9.6,3.4,19.2,6.2,28.4
		c5.5,18.4,14,33.6,24.1,49.7c9.7,15.3,18.9,31.5,18.4,50.1c-0.5,15.5-6.8,40.3,13.8,45.9c18,4.8,39.2-7,55.3-13.8
		c8.5-3.6,16.4-6.9,25.4-8.8c8-1.6,19-2.2,23.8-9.8C464.8,287.8,465.5,284,464.8,279.9z"/>
</g>
</svg>
