<?xml version="1.0" encoding="UTF-8" standalone="no"?>
<!-- Created with Inkscape (http://www.inkscape.org/) -->

<svg
   xmlns:dc="http://purl.org/dc/elements/1.1/"
   xmlns:cc="http://creativecommons.org/ns#"
   xmlns:rdf="http://www.w3.org/1999/02/22-rdf-syntax-ns#"
   xmlns:svg="http://www.w3.org/2000/svg"
   xmlns="http://www.w3.org/2000/svg"
   xmlns:sodipodi="http://sodipodi.sourceforge.net/DTD/sodipodi-0.dtd"
   xmlns:inkscape="http://www.inkscape.org/namespaces/inkscape"
   id="svg4161"
   version="1.1"
   inkscape:version="0.91 r13725"
   width="555"
   height="332.8125"
   viewBox="0 0 555 332.8125"
   sodipodi:docname="Workbench.svg">
  <metadata
     id="metadata4167">
    <rdf:RDF>
      <cc:Work
         rdf:about="">
        <dc:format>image/svg+xml</dc:format>
        <dc:type
           rdf:resource="http://purl.org/dc/dcmitype/StillImage" />
        <dc:title></dc:title>
      </cc:Work>
    </rdf:RDF>
  </metadata>
  <defs
     id="defs4165" />
  <sodipodi:namedview
     pagecolor="#ffffff"
     bordercolor="#666666"
     borderopacity="1"
     objecttolerance="10"
     gridtolerance="10"
     guidetolerance="10"
     inkscape:pageopacity="0"
     inkscape:pageshadow="2"
     inkscape:window-width="1600"
     inkscape:window-height="837"
     id="namedview4163"
     showgrid="false"
     inkscape:zoom="1.9891892"
     inkscape:cx="277.5"
     inkscape:cy="166.40625"
     inkscape:window-x="-8"
     inkscape:window-y="-8"
     inkscape:window-maximized="1"
     inkscape:current-layer="svg4161" />
  <path
     style="fill:#000000"
     d="m 94.303997,331.42431 c -8.137993,-2.89989 -9.006441,-7.62956 -8.997692,-49.00244 l 0.0062,-29.29687 -10.546875,-9.4e-4 -10.546875,-9.3e-4 0.275096,16.27208 c 0.489969,28.9819 -0.641164,31.63448 -13.564785,31.81024 -16.310033,0.2218 -16.229229,0.40903 -16.258668,-37.67066 l -0.01711,-22.12854 -13.107894,-6.98107 -13.107893,-6.98106 0,-6.36045 c 0,-7.49105 -1.0692187,-6.93373 14.986194,-7.81129 5.922095,-0.32368 10.884854,-0.70593 11.028356,-0.84943 C 34.841179,212.03382 34.762289,98.199787 34.372625,97.810116 34.188496,97.625991 27.114226,97.463409 18.652026,97.448822 10.189824,97.434291 2.6871662,97.064447 1.9794516,96.627056 0.44231046,95.67705 0.35513147,22.548202 1.8843434,16.85089 5.3978392,3.7608286 -9.8673375,4.7470822 211.875,3.2837985 310.58434,2.6324129 400.6671,1.7587617 407.34375,1.3880806 c 45.70452,-2.5374698 50.93226,-0.2322803 51.06696,22.5181694 0.0713,12.029137 -0.98656,11.052671 17.24269,15.917195 8.63074,2.303132 16.0448,4.405403 16.4757,4.671712 0.4309,0.266308 4.52265,1.501786 9.0928,2.745505 53.22569,14.484842 54.23902,14.930903 53.38529,23.499546 -0.78503,7.879044 0.49679,7.504955 -26.83991,7.833032 l -24.32978,0.291991 0,68.672279 0,68.67226 9.28429,3.92637 c 5.10635,2.1595 9.6816,3.92636 10.16719,3.92636 3.38973,0 5.67128,11.06474 2.86102,13.875 -0.7413,0.7413 -4.71236,1.125 -11.64315,1.125 l -10.51815,0 -0.30998,36.79687 c -0.25711,30.52262 -0.55162,37.27644 -1.72716,39.60938 l -1.4172,2.8125 -11.3356,0.26213 c -9.25655,0.21404 -11.55389,-9e-4 -12.52574,-1.17188 -0.65455,-0.7887 -1.75642,-1.434 -2.44858,-1.434 -4.1517,0 -5.24402,-9.30349 -5.14587,-43.82813 l 0.0886,-31.17187 -11.49298,0.005 c -6.32113,0.003 -15.60625,0.27723 -20.63359,0.61015 l -9.14063,0.6053 0,15.09333 c 0,12.79955 -1.4723,26.72821 -2.98413,28.23128 -1.23998,1.23278 -21.4488,0.7017 -22.96538,-0.60353 -0.93871,-0.80789 -2.3528,-1.69531 -3.14244,-1.97206 -2.70235,-0.94714 -4.1893,-9.742 -4.1893,-24.77855 0,-17.27326 3.56593,-15.29335 -25.78125,-14.31444 -13.66406,0.45577 -44.03906,1.46226 -67.5,2.23664 -23.46094,0.77438 -49.40625,1.63816 -57.65625,1.91954 -21.73811,0.74138 -72.45283,2.20328 -97.96875,2.82406 -12.11719,0.29479 -23.40234,0.74803 -25.07812,1.00719 l -3.04688,0.47121 0,34.10474 c 0,32.94609 -0.61855,42.00572 -3.0904,45.26342 -1.22404,1.61319 -15.083992,1.46172 -19.793101,-0.21632 z m 16.055583,-2.00709 c 1.14308,-0.30644 2.26976,-1.24989 2.50373,-2.09657 0.23398,-0.84667 0.69826,-2.48862 1.03173,-3.64878 0.60016,-2.08796 0.51052,-2.10937 -8.83186,-2.10937 l -9.43818,0 0,3.59375 c 0,4.8406 6.04828,6.58966 14.73458,4.26097 z m -17.189738,-4.80785 c -1.157954,-4.84728 -4.62422,-7.11774 -3.57815,-2.34375 0.969675,4.42536 1.246137,4.92188 2.740496,4.92188 1.109978,0 1.307965,-0.60937 0.837654,-2.57813 z m 21.223688,-44.0625 c 0.0102,-21.01171 0.0466,-55.28906 0.0809,-76.17187 0.0343,-20.88281 0.026,-49.67578 -0.0186,-63.98438 l -0.0809,-26.01562 -2.4776,0 -2.47759,0 0.67051,16.40625 c 0.46869,11.4681 0.36788,16.40625 -0.33491,16.40625 -0.61761,0 -1.00541,-2.47493 -1.00541,-6.41666 0,-3.52917 -0.27614,-10.92976 -0.61364,-16.44578 l -0.61363,-10.02912 -5.91455,0.2739 -5.914546,0.27391 -0.365906,101.95312 -0.365906,101.95313 9.706598,0 9.70658,0 0.0186,-38.20313 z m -15.51398,22.5 c 1.20327,-22.73002 2.31877,-31.07548 1.84833,-13.82812 -0.22502,8.25 -0.41054,17.63672 -0.41226,20.85937 -0.002,3.72323 -0.388714,5.85938 -1.060789,5.85938 -0.767034,0 -0.870159,-3.54222 -0.375281,-12.89063 z m 6.5376,3.98438 c 0.53321,-6.79177 1.98608,-32.12195 3.41453,-59.53125 1.25327,-24.04795 2.85584,-34.24569 2.2099,-14.0625 -0.44827,14.00689 -1.04318,29.60534 -1.87713,49.21875 -0.54461,12.80843 -1.97371,24.94159 -3.29239,27.9528 -0.6494,1.48292 -0.77479,0.49675 -0.45491,-3.5778 z m -3.19227,-59.95496 c -0.62134,-0.74867 -0.98455,-2.11492 -0.80715,-3.03611 0.40985,-2.12823 3.58227,-2.86121 3.58227,-0.82767 0,0.81124 0.42188,1.47499 0.9375,1.47499 1.51316,0 1.07432,2.55939 -0.54543,3.18095 -1.95579,0.7505 -1.86884,0.77225 -3.16719,-0.79216 z m 2.54075,-19.57484 c -0.38672,-0.94452 -0.70313,-5.26873 -0.70313,-9.60938 0,-5.02203 -0.3679,-7.89207 -1.01166,-7.89207 -1.00351,0 -0.47785,-19.54954 0.68943,-25.63954 1.4315,-7.46853 2.20833,1.14499 1.97991,21.95347 -0.13828,12.59765 -0.56784,22.13204 -0.95455,21.18752 z m -8.137233,-16.74299 c -0.03624,-1.38754 0.355978,-2.78353 0.871603,-3.10221 1.119225,-0.69173 1.119225,1.14542 0,3.75 -0.719437,1.67422 -0.812775,1.60485 -0.871603,-0.64779 z m 0.878831,-10.21158 c 0.0094,-7.80975 2.670232,-44.16184 3.276902,-44.76851 0.66315,-0.66315 0.57071,3.2347 -0.41881,17.65913 -0.477526,6.96094 -1.148401,17.08594 -1.490842,22.5 -0.710466,11.23245 -1.377909,13.48261 -1.36725,4.60938 z m 10.526712,-18.43751 c 0.0311,-13.98516 0.31731,-20.52237 0.76945,-17.57812 1.0308,6.71237 1.05785,39.84375 0.0325,39.84375 -0.48794,0 -0.8304,-9.50807 -0.80198,-22.26563 z m -9.515862,-55.25716 c 0.05869,-7.3843 0.303853,-9.3862 0.903572,-7.37905 1.005,3.3636 0.83573,16.38775 -0.221475,17.04114 -0.419475,0.25924 -0.726413,-4.08869 -0.682097,-9.66209 z m -5.872247,88.43864 c 0.277975,-94.34032 0.178428,-102.64516 -1.247456,-104.07104 -1.550216,-1.55023 -3.273375,-1.31157 -3.273375,0.45334 0,0.51563 0.392724,0.69479 0.872721,0.39814 1.788625,-1.10543 2.036611,1.88333 2.011872,24.24734 -0.03676,33.23298 -1.368662,36.77864 -1.969818,5.24387 -0.270312,-14.17969 -0.586718,19.10193 -0.703125,73.95915 -0.224559,105.82388 -0.356392,102.01385 3.53835,102.26096 0.257812,0.0163 0.604687,-46.10494 0.770831,-102.49176 z m 406.472619,99.16372 c 1.77569,-4.62736 0.6737,-8.14738 -2.36064,-7.54051 -1.61133,0.32227 -5.72461,0.5924 -9.14062,0.60029 -7.92205,0.0183 -8.98585,0.6747 -8.16705,5.03923 l 0.63483,3.38392 9.2322,0 c 7.55375,0 9.33569,-0.26961 9.80128,-1.48293 z m -23.853,-6.54251 c -0.61602,-0.74226 -1.54299,-1.34956 -2.05992,-1.34956 -1.2804,0 -0.0572,5.80172 1.41796,6.7257 1.57932,0.9892 2.12589,-3.58811 0.64196,-5.37614 z m 8.55045,-8.61518 c 0.0758,-7.27233 1.63263,-5.59771 1.7432,1.875 0.0554,3.74193 0.3531,4.45312 1.86422,4.45312 3.01342,0 4.76418,-1.05007 4.76418,-2.85747 0,-0.94566 0.42188,-1.9801 0.9375,-2.29878 0.53171,-0.32861 0.9375,0.45902 0.9375,1.81967 0,2.11681 0.38607,2.39908 3.28125,2.39908 l 3.28125,0 0,-111.1767 0,-111.176692 -10.2368,0.317321 c -5.63023,0.174527 -10.42846,0.528258 -10.66272,0.786071 -0.23427,0.257812 -0.65488,50.35547 -0.93469,111.32812 l -0.50875,110.85938 2.73399,0 2.73397,0 0.0659,-6.32813 z m 4.34847,-7.96875 c 0.73042,-14.40073 2.106,-18.44738 1.67309,-4.92188 -0.19805,6.1875 -0.38312,11.98828 -0.41127,12.89063 -0.0281,0.90234 -0.43325,1.64062 -0.90021,1.64062 -0.4835,0 -0.63918,-4.13698 -0.36161,-9.60937 z m -2.03902,-55.04321 c -2.21398,-2.44642 -1.21818,-5.13365 1.62042,-4.37284 1.15389,0.30928 2.62532,0.56808 3.26985,0.57512 1.85379,0.0203 1.36248,3.59482 -0.64149,4.66732 -2.36053,1.26332 -2.30897,1.27387 -4.24878,-0.8696 z M 494.36257,225 c 0,-3.35156 0.17015,-4.72266 0.37812,-3.04688 0.20795,1.67579 0.20795,4.41797 0,6.09375 -0.20797,1.67579 -0.37812,0.30469 -0.37812,-3.04687 z m -13.0975,-2.8125 c 0,-4.38281 0.1615,-6.17578 0.35888,-3.98438 0.19737,2.19141 0.19737,5.77735 0,7.96875 -0.19738,2.19141 -0.35888,0.39844 -0.35888,-3.98437 z m -0.32757,-16.25 c 0,-4.91552 0.37899,-8.125 0.95944,-8.125 0.87678,0 0.29848,14.8045 -0.6195,15.85938 -0.18697,0.21484 -0.33994,-3.26563 -0.33994,-7.73438 z m 14.28,-0.625 c 0,-1.80469 0.19294,-2.54297 0.42875,-1.64063 0.2358,0.90235 0.2358,2.37891 0,3.28125 -0.23581,0.90235 -0.42875,0.16407 -0.42875,-1.64062 z m -12.8117,-27.65625 c 0.21837,-9.79688 0.39921,-19.04297 0.40186,-20.54688 0.003,-1.5039 0.29165,-2.44756 0.6422,-2.09702 0.74475,0.74475 0.4404,14.33683 -0.66448,29.67515 -0.65894,9.14767 -0.71646,8.08229 -0.37958,-7.03125 z m 7.44961,-26.26542 c 0.63448,-24.53071 0.79238,-26.24867 2.32547,-25.30118 0.5999,0.37077 0.87869,8.85222 0.76466,23.26256 -0.12855,16.24669 -0.34355,20.153 -0.75804,13.77279 -0.64493,-9.92737 -0.77282,-9.73327 -1.54422,2.34375 -1.01971,15.96434 -1.39258,9.30169 -0.78787,-14.07792 z m -5.74446,-15.45333 c 0.79727,-21.05255 2.03891,-33.72774 3.43326,-35.04821 0.83286,-0.78874 0.97959,-0.58501 0.59737,0.82946 -0.27866,1.03125 -0.77259,4.61719 -1.09761,7.96875 -0.32503,3.35156 -0.75136,7.57031 -0.94741,9.375 -0.19605,1.80469 -0.63357,9.82031 -0.97227,17.8125 -0.3387,7.99219 -0.84506,14.74219 -1.12523,15 -0.28019,0.25781 -0.22983,-6.91406 0.11189,-15.9375 z m 12.94682,0.46875 c 0.0191,-1.54688 0.22921,-2.06619 0.46691,-1.15403 0.23769,0.91215 0.22206,2.17778 -0.0348,2.8125 -0.25681,0.63471 -0.45129,-0.1116 -0.43218,-1.65847 z m -0.50882,-8.67187 c -0.99438,-7.80137 -1.82882,-25.09985 -1.18207,-24.505 0.79595,0.73209 1.1917,4.30451 1.98767,17.9425 0.65306,11.18951 0.22679,14.66203 -0.8056,6.5625 z M 476.00336,166.875 c 4.3e-4,-48.21094 -0.32578,-85.125 -0.72493,-82.03125 -0.39914,3.09375 -0.77437,10.886025 -0.83386,17.31616 -0.0619,6.68496 -0.52491,12.10442 -1.08144,12.65625 -0.67253,0.66686 -0.88385,-4.61211 -0.68384,-17.08291 0.1592,-9.926398 -0.0269,-18.047492 -0.41367,-18.046874 -0.38671,6.19e-4 -0.7206,2.00503 -0.74197,4.454249 -0.97952,112.267245 -0.28319,218.059335 1.44325,219.270755 2.54662,1.78693 3.0354,-20.19148 3.03646,-136.53638 z M 59.641256,297.77035 c 0.06051,-0.0627 0.396026,-1.69613 0.745606,-3.62973 l 0.6356,-3.51562 -6.997055,0 c -3.848381,0 -7.664372,-0.25607 -8.479982,-0.56905 -1.23452,-0.47373 -1.482925,0.24374 -1.482925,4.28317 l 0,4.85224 7.734375,-0.65345 c 4.253906,-0.3594 7.783878,-0.70479 7.844381,-0.76756 z M 41.25,293.93923 c 0,-2.2253 -0.557787,-3.54678 -1.771178,-4.19616 -1.625204,-0.86979 -1.712662,-0.68846 -1.061169,2.20019 1.322281,5.86281 2.832347,6.92697 2.832347,1.99597 z m 20.155973,-7.29861 c 0.225295,-0.64453 0.528461,-8.48143 0.673702,-17.41532 l 0.264075,-16.24346 -2.417122,0.48469 c -1.581549,0.31714 -3.688095,-0.29616 -6.09375,-1.77416 -5.177561,-3.181 -5.082878,-3.31349 -5.082878,7.11296 0,6.808 -0.296533,9.24706 -1.066387,8.77126 -0.738042,-0.45613 -0.909379,-3.5084 -0.556465,-9.91303 0.509607,-9.24826 -0.06984,-11.10106 -3.471766,-11.10106 -0.29171,0 -0.530382,9.28125 -0.530382,20.625 l 0,20.625 8.935673,0 c 6.305071,0 9.056264,-0.34499 9.3453,-1.17188 z M 40.096061,265.15567 c -0.189508,-15.60899 -0.544005,-20.87893 -1.424186,-21.17188 -1.268257,-0.42212 -1.804082,40.0715 -0.546875,41.32871 1.89414,1.89414 2.200716,-1.24103 1.971061,-20.15683 z m 381.402229,18.18935 c 0.56625,-0.37882 1.30952,-2.48174 1.65171,-4.67315 l 0.62216,-3.98437 -4.4642,-0.18484 c -16.52502,-0.68419 -15.97714,-0.89543 -14.66701,5.65519 0.57837,2.89188 0.5793,2.89226 7.73437,3.20978 3.93576,0.17464 7.36687,0.39598 7.62468,0.49184 0.25781,0.0959 0.93204,-0.13562 1.49829,-0.51445 z M 401.626,278.67187 c -0.58005,-3.15449 -1.71753,-4.86655 -3.26051,-4.90752 -1.14713,-0.0305 0.34785,6.14025 1.75677,7.25127 2.13492,1.6835 2.21992,1.55102 1.50374,-2.34375 z m 4.20903,-8.89085 0.77462,-2.09397 0.6646,2.09397 c 0.53447,1.68398 1.36354,2.09398 4.23424,2.09398 4.14243,0 3.94206,0.52606 5.71346,-15 1.58359,-13.87973 2.15458,-12.98603 1.49744,2.34375 -0.51088,11.91777 -0.44379,12.78007 0.72944,9.375 l 1.29207,-3.75 0.0983,3.51562 c 0.3776,13.50448 3.8483,3.14695 3.8483,-11.48437 l 0,-15 -5.85938,0.008 c -3.22265,0.005 -8.07421,0.27418 -10.78125,0.59933 l -4.92187,0.59119 0,14.40066 c 0,13.94988 0.78442,17.51209 2.71003,12.30669 z m 2.57365,-11.63062 c -0.3279,-2.39228 -0.54996,-6.7165 -0.49346,-9.60937 0.12219,-6.25676 1.03212,-2.75197 2.10287,8.09959 0.66559,6.7454 -0.71436,8.03992 -1.60941,1.50978 z m -8.09618,-1.2754 c 0,-13.20928 -0.10848,-14.0625 -1.78795,-14.0625 -2.16133,0 -3.01468,24.32078 -0.94104,26.81938 2.31122,2.78484 2.72899,0.83197 2.72899,-12.75688 z M 67.5,249.35675 c 0.257812,-0.38254 4.371094,-1.00159 9.140625,-1.37566 6.618345,-0.51909 8.671875,-1.00061 8.671875,-2.03342 0,-1.07931 -1.091304,-1.25402 -5.390625,-0.86298 -2.964844,0.26966 -8.554688,0.7484 -12.421875,1.06386 -7.191405,0.58664 -9.375,1.48742 -9.375,3.86744 0,1.42694 8.365452,0.83869 9.375,-0.65924 z m 82.27656,-1.56339 c -0.89634,-0.23464 -2.58384,-0.24316 -3.75,-0.0189 -1.16617,0.22425 -0.43281,0.41624 1.62969,0.42664 2.0625,0.0104 3.01664,-0.17307 2.12031,-0.40772 z m 6.55156,-0.002 c -0.90234,-0.2358 -2.3789,-0.2358 -3.28125,0 -0.90234,0.23581 -0.16406,0.42874 1.64063,0.42874 1.80469,0 2.54297,-0.19293 1.64062,-0.42874 z m 25.82025,-0.98437 c -3.20122,-0.1825 -8.6856,-0.18385 -12.1875,-0.003 -3.50192,0.18087 -0.88275,0.3302 5.82038,0.33184 6.70312,0.002 9.56832,-0.14635 6.36712,-0.32886 z m -8.71087,-1.7078 c 11.08594,-0.28935 27.48039,-0.92226 36.43212,-1.40646 26.26293,-1.42056 35.24209,-0.92848 17.38815,0.9529 -15.6068,1.64459 39.7909,0.26767 149.14848,-3.70711 13.92187,-0.50601 28.37109,-0.92421 32.10937,-0.92933 3.73829,-0.005 6.79688,-0.37075 6.79688,-0.81249 0,-0.88571 -33.76473,-2.11516 -58.35938,-2.125 -10.7195,-0.005 -15.70312,-0.3311 -15.70312,-1.02978 0,-0.96085 46.33756,-0.42617 58.125,0.67071 14.68937,1.36691 68.88508,0.89005 69.17655,-0.60867 0.51047,-2.62484 -75.21388,-4.30913 -118.3953,-2.63338 -9.79688,0.38018 -53.67188,1.68146 -97.5,2.89171 -43.82813,1.21026 -77.44507,2.4811 -74.7043,2.82409 2.74075,0.343 5.17801,0.81844 5.41611,1.05656 0.23812,0.2381 -10.44183,0.7116 -23.73319,1.05221 -13.29136,0.34061 -27.85753,0.87575 -32.36925,1.18918 -7.66329,0.53238 -11.83807,-0.71643 -6.09375,-1.82284 1.52541,-0.2938 1.26587,-0.44163 -0.9375,-0.53395 -2.75062,-0.11526 -3.04687,0.13059 -3.04687,2.52858 0,4.10622 0.31165,4.16521 18.75,3.54889 9.53906,-0.31885 26.41406,-0.81647 37.5,-1.10582 z m 97.03793,-4.01668 c 1.58986,-1.68765 86.37836,-3.75555 85.3437,-2.08143 -0.29783,0.4819 -4.01414,0.81153 -8.25845,0.7325 -11.00805,-0.20496 -64.67885,1.13511 -71.93568,1.79612 -4.3073,0.39234 -5.81695,0.26124 -5.14957,-0.44719 z m -65.16293,-1.10935 c 5.13497,-0.72236 33.478,-1.2173 32.73438,-0.57161 -0.21485,0.18654 -8.82813,0.55468 -19.14063,0.81807 -10.42924,0.26638 -16.46179,0.15701 -13.59375,-0.24646 z m 8.67187,5.90276 c -2.1914,-0.19737 -5.77734,-0.19737 -7.96875,0 -2.1914,0.19738 -0.39843,0.35888 3.98438,0.35888 4.38281,0 6.17578,-0.1615 3.98437,-0.35888 z M 55.3125,243.38155 c 0,-2.06988 -2.435446,-4.0711 -3.571683,-2.93487 -0.269949,0.26995 0.0014,0.49082 0.602933,0.49082 0.601562,0 1.09375,0.68447 1.09375,1.52104 0,1.08553 -0.335537,1.25599 -1.171875,0.59537 -1.593645,-1.25885 -9.019814,-2.13284 -9.637012,-1.13419 -0.846457,1.36959 4.510923,3.62828 8.699512,3.66774 3.587954,0.0339 3.984375,-0.18567 3.984375,-2.20591 z m 19.921875,-0.20271 c 10.046337,-0.64047 14.083669,-2.2457 5.625,-2.23649 -12.159786,0.0132 -22.734375,1.22266 -22.734375,2.60012 0,1.07336 0.790408,1.26036 3.515625,0.83176 1.933594,-0.30409 8.050781,-0.84202 13.59375,-1.19539 z M 46.56488,239.55592 c 3.265683,0.3449 4.005898,0.23043 2.65387,-0.4104 -3.332481,-1.57956 -14.427568,-1.23727 -12.292369,0.37922 1.234468,0.93458 2.27542,1.06969 3.439881,0.44649 0.918361,-0.4915 3.707739,-0.67839 6.198618,-0.41531 z m 113.09053,-0.25266 c -4.22859,-0.17331 -11.40046,-0.17419 -15.9375,-0.002 -4.53703,0.17222 -1.07729,0.31402 7.68834,0.3151 8.76562,9.4e-4 12.47775,-0.13984 8.24916,-0.31314 z m -81.701462,-1.17826 7.358552,0 0,-11.76417 0,-11.76417 -27.421875,0.62917 c -15.082031,0.34604 -30.783192,0.89383 -34.891469,1.2173 l -7.469595,0.58812 20.594595,11.06651 20.594594,11.06651 6.938323,-0.51963 C 67.47315,238.35883 73.906744,238.125 77.953948,238.125 Z m -37.641448,-1.95909 5.15625,-0.10969 -3.542045,-0.93999 c -3.897304,-1.03426 -9.618711,-0.32528 -10.634167,1.31776 -0.443155,0.71704 0.06548,0.8579 1.607738,0.44524 1.240786,-0.332 4.576286,-0.65299 7.412224,-0.71332 z m 144.84375,-0.42267 c 9.79687,-0.26655 41.01562,-1.09386 69.375,-1.83847 28.35937,-0.74461 57.89062,-1.57839 65.625,-1.85282 28.34593,-1.00582 69.19571,-2.36235 98.90625,-3.28448 16.75781,-0.52012 34.79297,-1.19929 40.07812,-1.50929 l 9.60938,-0.56361 0,-9.80625 0,-9.80625 -3.98438,-1.7385 c -3.69688,-1.61305 -5.60787,-1.68124 -26.48437,-0.94491 -12.375,0.43647 -32.20313,1.0463 -44.0625,1.35517 -11.85938,0.30887 -33.16406,0.95494 -47.34375,1.43571 -14.17969,0.48078 -48.98438,1.52769 -77.34375,2.32647 -28.35938,0.79877 -73.35307,2.07819 -99.98599,2.84315 -26.63291,0.76496 -49.30869,1.39084 -50.39062,1.39084 -1.89396,0 -1.96714,0.44024 -1.96714,11.83378 l 0,11.83378 25.07812,-0.59484 c 13.79297,-0.32717 33.09375,-0.81293 42.89063,-1.07948 z m 1.43253,-6.95266 c -2.70277,-1.71808 1.46347,-2.05059 20.53687,-1.63906 24.35734,0.52553 25.49912,1.59848 1.70102,1.59848 -10.09845,0 -18.92267,0.2065 -19.60937,0.45891 -0.68671,0.25239 -1.86954,0.0641 -2.62852,-0.41833 z m 55.75497,-0.0769 c -13.69973,-0.46123 -12.86195,-0.52218 9.66471,-0.70313 15.57104,-0.12507 24.45961,0.13372 24.10846,0.7019 -0.5642,0.9129 -6.68772,0.91313 -33.77317,9.4e-4 z m 37.53362,0.0907 c -0.41089,-0.6648 1.77517,-0.99187 6.6298,-0.99187 3.98356,0 7.0426,0.20023 6.79787,0.44497 -1.01779,1.01778 -12.83908,1.49928 -13.42767,0.54692 z m 14.57575,-0.39942 c 0.89171,-0.78759 20.49601,-1.26862 20.01549,-0.49112 -0.28423,0.45988 -4.99187,0.83614 -10.46144,0.83614 -5.46957,0 -9.76889,-0.15526 -9.55405,-0.34502 z m 62.26563,-3.87171 c 2.28678,-0.77746 29.53125,-1.1135 29.53125,-0.36424 0,0.45705 -6.85547,0.79769 -15.23438,0.75698 -8.3789,-0.0407 -14.8125,-0.21744 -14.29687,-0.39274 z m 32.34375,-0.60529 c 0,-0.44162 1.26562,-0.80295 2.8125,-0.80295 3.66731,0 3.66535,1.3758 -0.002,1.50607 -1.54571,0.0549 -2.81037,-0.26149 -2.81037,-0.70312 z M 146.25,223.33464 c 0,-2.02155 16.57082,-4.0611 30.9375,-3.8078 5.97704,0.10538 5.93214,0.12269 -2.34375,0.90356 -13.36034,1.26062 -24.19502,2.58829 -26.48438,3.24536 -1.19444,0.34283 -2.10937,0.19486 -2.10937,-0.34112 z m 110.2486,-1.42789 c -3.15227,-2.31302 15.58873,-4.61515 34.59515,-4.24965 l 5.625,0.10817 -7.03125,0.78098 c -3.86719,0.42953 -9.98437,1.09822 -13.59375,1.48597 l -6.5625,0.70501 6.09375,0.56333 c 5.53882,0.51201 5.19732,0.57921 -3.75,0.73793 -5.41406,0.096 -10.6875,0.39999 -11.71875,0.67545 -1.03125,0.27547 -2.67719,-0.0877 -3.65765,-0.80719 z m -52.59235,-3.94138 c 24.09619,-1.88583 32.67134,-2.28695 31.77602,-1.48638 -0.92196,0.82438 -33.39291,3.00288 -41.61977,2.7923 -2.83594,-0.0726 1.59375,-0.66025 9.84375,-1.30591 z m 52.03125,-3.244 c 5.36247,-2.05292 76.77503,-4.02246 75.57723,-2.0844 -0.28741,0.46505 -15.40596,1.11666 -33.59678,1.44803 -18.19081,0.33136 -35.60545,0.81198 -38.6992,1.06805 -4.2003,0.34767 -5.03138,0.23832 -3.28125,-0.43168 z m 81.09375,-0.71523 c -1.54688,-0.22022 -3.21328,-0.78983 -3.70313,-1.26578 -1.11012,-1.07863 2.11467,-1.01864 26.67188,0.49619 l 19.21875,1.18552 -19.6875,-0.007 c -10.82813,-0.005 -20.95313,-0.18795 -22.5,-0.40817 z m 44.76562,0.01 c 1.41797,-0.21481 3.73829,-0.21481 5.15625,0 1.41797,0.2148 0.25782,0.39055 -2.57812,0.39055 -2.83594,0 -3.99609,-0.17575 -2.57813,-0.39055 z m 9.47729,0.0223 c 1.07132,-1.07128 4.35084,-1.28419 4.35084,-0.28242 0,0.51239 -1.125,0.93162 -2.5,0.93162 -1.375,0 -2.20788,-0.29213 -1.85084,-0.64916 z m 5.75709,-0.2883 c 0.31867,-0.51563 1.18732,-0.9375 1.93033,-0.9375 0.74301,0 1.35092,0.42187 1.35092,0.9375 0,0.51562 -0.86865,0.9375 -1.93033,0.9375 -1.06168,0 -1.66959,-0.42188 -1.35092,-0.9375 z m 8.29109,0.30265 c 1.02917,-1.02916 9.05266,-1.27602 9.05266,-0.27852 0,0.50235 -2.17969,0.91337 -4.84375,0.91337 -2.66406,0 -4.55807,-0.28568 -4.20891,-0.63485 z M 416.25,213.75 c 0,-0.51563 1.07959,-0.9375 2.39908,-0.9375 1.36065,0 2.14828,0.40579 1.81967,0.9375 -0.31867,0.51562 -1.39826,0.9375 -2.39908,0.9375 -1.00082,0 -1.81967,-0.42188 -1.81967,-0.9375 z m 5.99714,-0.15631 c -0.26554,-0.42966 1.01866,-0.78119 2.85378,-0.78119 1.83512,0 3.33658,0.16306 3.33658,0.36234 0,0.76986 -5.73366,1.15781 -6.19036,0.41885 z m 12.51848,-0.52188 c 1.67579,-0.20795 4.41797,-0.20795 6.09375,0 1.67579,0.20797 0.30469,0.37812 -3.04687,0.37812 -3.35156,0 -4.72266,-0.17015 -3.04688,-0.37812 z M 524.0625,234.375 c 0,-1.57987 -0.66406,-1.89345 -4.21875,-1.99219 -2.32031,-0.0644 -4.64063,-0.22265 -5.15625,-0.35156 -0.51563,-0.12891 -2.41406,-0.28711 -4.21875,-0.35156 -1.80469,-0.0644 -3.28125,-0.4861 -3.28125,-0.93699 0,-0.45089 3.79687,-0.60331 8.4375,-0.33872 7.38813,0.42126 8.4375,0.29003 8.4375,-1.05519 0,-1.72719 -4.54245,-2.01264 -14.86248,-0.93398 l -5.76252,0.60229 0,3.61646 0,3.61644 10.3125,0 c 9.6875,0 10.3125,-0.11363 10.3125,-1.875 z m -493.659433,0.10627 c 0.282547,-0.45717 2.088065,-1.12656 4.012261,-1.48755 5.150202,-0.96618 1.426504,-2.78179 -4.140365,-2.01877 -5.633503,0.77215 -6.618433,1.53442 -3.917244,3.03169 2.683435,1.48742 3.369657,1.56793 4.045348,0.47463 z M 468.75,230.95236 c 0,-1.3741 -1.02503,-1.47977 -9.14063,-0.94236 -5.02734,0.33292 -15.04687,0.69817 -22.26562,0.81168 l -13.125,0.20637 16.875,0.53445 c 9.28125,0.29394 19.30078,0.62513 22.26562,0.73597 4.46695,0.167 5.39063,-0.0636 5.39063,-1.34611 z m -441.626678,-1.3564 c 2.619236,-0.78473 3.489136,-1.41139 2.675706,-1.92751 -3.304287,-2.09655 -13.273272,0.36711 -10.382309,2.5658 0.922367,0.7015 2.160463,1.10648 2.751324,0.89997 0.590862,-0.20651 2.820736,-0.89873 4.955279,-1.53826 z m -6.252472,-3.38545 c 1.42428,-0.26905 2.820271,-0.86243 3.102203,-1.3186 0.714865,-1.15667 -5.887247,-1.04165 -8.097185,0.14107 -2.556488,1.3682 -2.328974,3.16093 0.296007,2.33246 1.160156,-0.36615 3.274695,-0.88587 4.698975,-1.15493 z m 493.3479,-1.22556 c 2.32455,-0.0295 1.67864,-0.51922 -3.72295,-2.82281 -3.59451,-1.53292 -6.6531,-2.78714 -6.79688,-2.78714 -0.59831,0 -0.20429,5.36998 0.4417,6.01992 0.38672,0.38909 2.17969,0.46405 3.98438,0.16658 1.80469,-0.29748 4.54687,-0.55693 6.09375,-0.57655 z M 16.909736,221.41783 C 14.974631,220.77279 11.25,222.20652 11.25,223.59644 c 0,1.16364 0.512218,1.12897 3.356217,-0.22724 1.84592,-0.88027 2.882503,-1.75838 2.303519,-1.95137 z m 23.595338,-25.24596 c 0.893849,-53.85766 0.495732,-123.359942 -0.643071,-112.26562 -0.635131,6.1875 -1.255021,11.25 -1.377533,11.25 -0.122513,0 -0.418341,26.47266 -0.657397,58.82812 -0.384783,52.07918 -0.271942,58.82813 0.983589,58.82813 1.20234,0 1.460277,-2.53316 1.694412,-16.64063 z m 8.590213,14.0625 c 0.271846,-1.41796 0.772028,-6.48046 1.111516,-11.25 0.903286,-12.69044 2.104136,-10.59389 1.555949,2.71651 -0.346215,8.40637 -0.188358,11.21492 0.602859,10.72592 0.589539,-0.36435 1.071889,-2.34995 1.071889,-4.41245 0,-2.26128 0.372182,-3.51999 0.9375,-3.1706 0.515625,0.31868 0.9375,2.24201 0.9375,4.27408 0,3.28266 0.252813,3.69467 2.267075,3.69467 5.471182,0 5.132026,3.36481 5.201339,-51.60295 0.06857,-54.38083 0.228485,-52.45955 -4.366336,-52.45955 -0.424154,0 -0.616844,6.32813 -0.428202,14.0625 0.240915,9.87757 0.03358,14.0625 -0.696695,14.0625 -0.716465,0 -1.039681,-4.51155 -1.039681,-14.5122 l 0,-14.51219 -3.75,-1.91311 -3.75,-1.91311 0,-14.073654 c 0,-13.67328 -1.283087,-18.16456 -4.426209,-15.493377 -0.114103,0.09697 -0.470641,31.266551 -0.792308,69.265721 l -0.584848,69.08942 2.827193,0 c 2.339389,0 2.912474,-0.44483 3.321459,-2.57813 z M 46.875,189.91822 c 0,-2.85585 0.44025,-11.42371 0.978334,-19.0397 0.538083,-7.616 1.352142,-21.01915 1.809019,-29.78477 l 0.830685,-15.9375 -0.400122,20.625 c -0.574464,29.61175 -1.498609,48.26681 -2.419255,48.83581 -0.439264,0.27148 -0.798661,-1.843 -0.798661,-4.69884 z m 11.619897,-11.32447 c 0.0015,-7.21875 0.148627,-10.04795 0.327031,-6.28711 0.178404,3.76084 0.177207,9.66709 -0.0026,13.125 -0.179901,3.45791 -0.325868,0.38086 -0.324406,-6.83789 z m 26.817603,-12.16002 0,-45.44127 -5.390625,-2.48558 c -9.062727,-4.17875 -13.61137,-6.06739 -13.90521,-5.77355 -0.154252,0.15426 -0.410948,22.52442 -0.570436,49.71148 l -0.289979,49.43101 10.078125,-4.2e-4 10.078125,-4e-4 0,-45.44127 z m 76.875,43.10663 c 11.60156,-0.26675 29.10937,-0.69155 38.90625,-0.94399 9.79687,-0.25245 26.25,-0.6758 36.5625,-0.94079 31.67139,-0.81381 53.20025,-1.43441 82.03125,-2.36468 15.21094,-0.49079 38.06584,-1.17505 50.78866,-1.52057 22.41874,-0.60884 23.14865,-0.68874 23.65907,-2.5899 0.28967,-1.07892 0.5329,-26.21949 0.54051,-55.86793 l 0.0139,-53.90625 -28.36042,0.613546 c -15.59826,0.337449 -61.05576,1.112803 -101.0167,1.723008 -39.96094,0.610205 -72.73633,1.18763 -72.83422,1.283162 -0.0979,0.09554 -0.26994,3.015215 -0.38237,6.488164 -0.27311,8.43594 0.69501,8.10248 -24.35818,8.39007 l -21.95648,0.25205 0.10093,21.80998 c 0.0871,18.81768 0.31218,22.0434 1.64063,23.51132 3.88895,4.29725 1.19407,8.63595 -5.75704,9.26869 -6.46125,0.58815 -10.99911,-4.75397 -7.23536,-8.51771 1.31914,-1.31915 2.28178,-44.40703 1.02058,-45.68165 -0.21258,-0.21485 -4.37598,-0.25751 -9.252,-0.0948 l -8.8655,0.29582 -0.0394,49.38215 c -0.0461,57.81728 -1.69605,51.06049 12.31161,50.41782 6.2634,-0.28737 20.88019,-0.74074 32.48175,-1.0075 z M 468.75,158.08354 c 0,-35.16501 -0.26327,-45.56169 -1.17188,-46.27862 -1.52482,-1.20315 -38.42217,-13.460879 -38.94505,-12.937998 -0.21946,0.219469 -0.48341,23.476588 -0.58655,51.682468 l -0.18753,51.28345 16.46113,-0.48231 c 12.17631,-0.35676 17.31524,-0.16649 19.74238,0.73101 1.80469,0.66732 3.59766,1.24541 3.98437,1.28463 0.38672,0.0392 0.70313,-20.33795 0.70313,-45.28263 z m -67.6252,-13.47417 c -0.0809,-37.39791 -0.40473,-55.235694 -0.91486,-50.39062 -0.43433,4.125 -1.31758,11.08594 -1.96282,15.46875 -0.7895,5.36287 -1.20847,21.84126 -1.28118,50.39062 L 396.8579,202.5 l 2.19605,0 2.19605,0 -0.1252,-57.89063 z m 5.22021,52.96875 c 0.29833,-2.70703 0.67686,-6.82031 0.84117,-9.14062 0.16431,-2.32031 0.3789,-0.63281 0.47689,3.75 0.22836,10.21504 0.42018,10.48238 7.26764,10.12931 l 5.53804,-0.28556 0.59393,-7.31269 c 0.81591,-10.04571 1.74982,-10.18738 1.74982,-0.26543 0,6.14573 0.29392,8.10519 1.17187,7.81267 2.33025,-0.77641 1.63454,-105.168184 -0.70312,-105.503509 -1.79674,-0.257729 -1.84933,0.09447 -1.25994,8.437499 0.33827,4.78855 0.59467,13.13615 0.56975,18.55021 l -0.0453,9.84375 -0.7835,-8.90625 c -0.43095,-4.89844 -1.10921,-13.54508 -1.50727,-19.21478 l -0.72375,-10.30852 -4.86653,-1.382316 c -5.31762,-1.510449 -5.88012,-2.38467 -5.90193,-9.172509 -0.0116,-3.621586 -0.2262,-3.984375 -2.35655,-3.984375 l -2.34375,0 0.14272,22.73438 c 0.13674,21.78094 0.17196,22.19131 0.8398,9.78521 0.38338,-7.12205 0.9935,-13.239237 1.35581,-13.593753 0.36231,-0.354524 0.35219,5.472603 -0.0225,12.949163 -0.37468,7.47656 -1.04901,13.73438 -1.49854,13.90625 -0.44951,0.17188 -0.8173,0.72411 -0.8173,1.2272 0,0.50309 0.46069,0.62998 1.02375,0.28199 0.71918,-0.44447 0.86559,1.14286 0.49214,5.3353 -2.00759,22.53765 -2.44325,69.24926 -0.64584,69.24926 0.47853,0 1.11413,-2.21484 1.41247,-4.92188 z m 7.54316,-11.97487 c 1.95417,-7.92406 2.49127,-47.6203 0.9257,-68.41575 -0.31,-4.11772 -0.16678,-5.61598 0.44167,-4.62038 2.77282,4.53717 1.9302,71.59508 -0.93495,74.40533 -0.72647,0.71255 -0.84962,0.32258 -0.43241,-1.3692 z M 411.25,185 c -0.89926,-0.89925 -0.64361,-20.11204 0.29731,-22.34375 0.48623,-1.15326 0.80796,2.90654 0.83582,10.54687 0.0249,6.83204 -0.0792,12.42188 -0.23141,12.42188 -0.1522,0 -0.55797,-0.28125 -0.90172,-0.625 z m 0.53,-27.5 c 0,-1.80469 0.19294,-2.54297 0.42875,-1.64063 0.2358,0.90235 0.2358,2.37891 0,3.28125 -0.23581,0.90235 -0.42875,0.16407 -0.42875,-1.64062 z m -0.0348,-7.03125 c 0.0191,-1.54688 0.22922,-2.06619 0.46691,-1.15403 0.2377,0.91215 0.22207,2.17778 -0.0348,2.8125 -0.25681,0.63471 -0.45128,-0.1116 -0.43218,-1.65847 z m -5.80772,-56.25 c 0,-1.289063 0.36338,-2.34375 0.8075,-2.34375 0.44412,0 0.60588,1.054687 0.35945,2.34375 -0.24642,1.289062 -0.60978,2.34375 -0.80749,2.34375 -0.1977,0 -0.35946,-1.054688 -0.35946,-2.34375 z m -264.375,66.14908 c 0,-2.17342 -1.43492,-3.23731 -3.36657,-2.49606 -1.09558,0.42041 -1.18096,0.95053 -0.39087,2.42682 1.28913,2.40877 3.75744,2.45426 3.75744,0.0693 z m 1.56266,-29.73653 c -0.65961,-24.89456 -0.56038,-24.08206 -2.83473,-23.20932 -1.37065,0.52597 -1.54043,3.11157 -1.54043,23.45957 l 0,22.86845 2.49386,0 2.49387,0 -0.61257,-23.1187 z M 83.265968,108.59573 c -1.19472,-0.91486 -2.839408,-1.45949 -3.654861,-1.21028 -2.933682,0.89658 -7.848708,-3.54048 -8.393972,-7.577681 -0.275888,-2.04271 -0.82813,-4.241363 -1.227203,-4.885894 C 69.583413,94.265316 69.700928,93.75 70.257172,93.75 c 0.546391,0 0.983205,-1.791624 0.971426,-3.984375 l -0.0214,-3.984375 -8.181723,-3.481299 c -4.499948,-1.914716 -8.932597,-3.757652 -9.850332,-4.095417 -1.554879,-0.572258 -1.650728,0.234989 -1.40625,11.843594 l 0.262359,12.457712 16.40625,7.68498 16.40625,7.68497 0.297218,-3.80834 c 0.240622,-3.08314 -0.116416,-4.12507 -1.875,-5.47172 z m 45.171532,-1.35217 c 0,-0.27152 -1.05469,-1.87643 -2.34375,-3.56648 -1.28906,-1.69005 -2.34375,-3.749227 -2.34375,-4.575952 0,-1.152328 -1.1487,-1.569272 -4.92187,-1.786509 L 113.90625,97.03125 113.61528,93.515625 113.32432,90 l 5.22861,0 c 4.94107,0 5.44688,-0.224936 9.19721,-4.090054 2.18274,-2.249529 4.44464,-4.253435 5.02647,-4.453125 0.58182,-0.199689 1.36064,-1.766092 1.7307,-3.480897 l 0.67284,-3.117825 -4.07445,0.586257 c -2.24095,0.322442 -12.19397,0.670776 -22.11782,0.774076 -9.923849,0.1033 -18.065058,0.398755 -18.091569,0.656568 -0.157358,1.530313 -0.433171,31.08848 -0.29143,31.23181 0.425125,0.42988 37.832619,-0.42368 37.832619,-0.86325 z M 468.75,93.75 l 0,-14.0625 -26.48438,0.0128 c -31.98384,0.01546 -30.70312,-0.218944 -30.70312,5.619559 l 0,4.476171 9.60937,3.408986 c 5.28516,1.874943 16.95097,5.711643 25.92403,8.526007 8.97305,2.81437 16.53165,5.33403 16.79688,5.59925 0.26521,0.26523 1.46659,0.48223 2.66972,0.48223 l 2.1875,0 0,-14.0625 z M 87.65625,91.250957 c 0,-11.663378 -0.296963,-15.721625 -1.171875,-16.014682 -0.907087,-0.303833 -1.171875,3.226253 -1.171875,15.6231 0,12.188005 0.28007,16.015405 1.171875,16.014675 0.890579,-7.1e-4 1.171875,-3.75087 1.171875,-15.623093 z M 189.16329,90.703125 189.42034,75 l -26.0383,0.15281 c -14.32106,0.08405 -23.72163,0.400451 -20.89017,0.703125 4.16701,0.445437 5.21569,0.907649 5.50263,2.425315 0.95803,5.06704 7.563,10.78125 12.46189,10.78125 l 4.65679,0 -0.29096,3.515625 c -0.27258,3.293372 -0.50369,3.533447 -3.65566,3.797597 -2.77196,0.232294 -3.62959,0.837487 -4.8685,3.435506 -0.8271,1.734452 -2.33261,3.416592 -3.34558,3.738092 -7.6361,2.42361 -2.65978,3.36035 16.5228,3.11026 l 19.43097,-0.25333 0.25704,-15.703125 z M 82.5,88.538422 C 82.5,78.887807 82.149486,73.125 81.5625,73.125 c -0.529059,0 -0.952268,2.756972 -0.971395,6.328125 -0.01865,3.480469 -0.275653,10.017087 -0.571136,14.525822 -0.554351,8.458773 -0.101882,11.568613 1.535909,10.556403 C 82.127764,104.1819 82.5,97.874831 82.5,88.538422 Z m -4.6875,7.742828 c 0,-6.335981 -0.909779,-9.09375 -3,-9.09375 -1.300183,0 -0.892921,14.78608 0.421875,15.31661 2.380148,0.96042 2.578125,0.48255 2.578125,-6.22286 z m 63.75,5.90625 c 0,-0.51562 -0.52734,-0.94326 -1.17188,-0.9503 -0.64453,-0.008 -2.12109,-0.26718 -3.28125,-0.5781 C 135.90498,100.33634 135,100.51496 135,101.07546 c 0,0.87312 1.86394,1.53766 5.39062,1.92187 0.64454,0.0702 1.17188,-0.2942 1.17188,-0.80983 z m 10.81586,-1.19822 C 156.78393,97.199775 155.2289,88.762732 150,88.085089 c -9.42019,-1.220817 -11.8269,11.082555 -2.8125,14.377821 2.29946,0.84058 2.59943,0.75543 5.19086,-1.47363 z M 145.3125,99.375 c -2.16347,-2.163469 -2.39053,-4.030059 -0.6645,-5.462541 0.90124,-0.747958 1.51746,-0.513132 2.41191,0.919107 0.88963,1.424531 1.91355,1.819218 3.94574,1.520953 3.16981,-0.465225 3.6211,1.000931 1.02991,3.345928 -2.27837,2.061903 -4.44179,1.957823 -6.72306,-0.323447 z m -6.16403,-2.578125 c -0.30085,-1.575891 0.21565,-3.944808 1.32862,-6.09375 l 1.82078,-3.515625 -2.88539,0 c -6.21078,0 -10.00671,7.677553 -4.4043,8.90805 1.55138,0.340734 2.60343,0.971034 2.33791,1.400662 -0.39882,0.645291 0.16097,1.130166 2.0836,1.804772 0.11601,0.04069 -0.0105,-1.08614 -0.28122,-2.504109 z m 258.08551,-5.625 c -0.2148,-1.417969 -0.39055,-0.257813 -0.39055,2.578125 0,2.835937 0.17575,3.996094 0.39055,2.578125 0.21481,-1.417969 0.21481,-3.738281 0,-5.15625 z M 4.6875,59.8125 C 4.6875,37.157582 4.3672012,25.257799 3.7733964,25.851604 2.2983583,27.326642 2.0461087,94.688381 3.515625,94.687894 4.4321167,94.687584 4.6875,87.087293 4.6875,59.8125 Z M 35.438972,88.220222 C 35.804148,80.472265 36.039236,80.616632 22.420529,80.225676 8.8191204,79.835217 9.4563234,79.922065 11.25,78.703167 c 0.894048,-0.607552 5.622553,-0.730064 12.982099,-0.336356 10.989745,0.587912 11.558815,0.530222 11.239443,-1.139397 -0.375985,-1.965587 -5.516247,-2.773788 -20.804367,-3.271062 l -8.3015743,-0.270025 0.017726,9.328712 c 0.00975,5.130791 0.054051,9.847224 0.09845,10.48096 0.060776,0.86752 3.6135424,1.099185 14.3775984,0.937504 L 35.15625,94.21875 35.438972,88.220222 Z M 19.21875,86.25 c -0.367828,-0.595159 2.159322,-0.9375 6.920593,-0.9375 4.125,0 7.760733,0.421875 8.079407,0.9375 0.367828,0.595159 -2.159322,0.9375 -6.920593,0.9375 -4.125,0 -7.760733,-0.421875 -8.079407,-0.9375 z m 322.03125,3.388377 52.96875,-1.044627 0.28828,-3.984375 0.28828,-3.984375 -10.60078,-1.59e-4 c -9.38738,-1.42e-4 -36.49544,0.397204 -157.31953,2.305965 -17.27344,0.272883 -32.14453,0.498524 -33.04688,0.501422 -1.32362,0.0042 -1.64062,0.837345 -1.64062,4.311648 l 0,4.306376 48.04687,-0.683624 C 266.66016,90.990636 312.11719,90.212922 341.25,89.638377 Z m 57.1875,-5.732127 c 0,-1.804688 -0.42188,-3.28125 -0.9375,-3.28125 -0.51563,0 -0.9375,1.476562 -0.9375,3.28125 0,1.804687 0.42187,3.28125 0.9375,3.28125 0.51562,0 0.9375,-1.476563 0.9375,-3.28125 z M 77.62286,79.595455 77.34375,73.878412 69.692666,70.795816 62.041583,67.713221 61.652032,72.528486 c -0.471238,5.824986 -0.136995,6.225532 8.191718,9.816724 8.536409,3.680746 8.100573,3.834805 7.77911,-2.749755 z M 145.3125,81.5625 c 0,-2.714676 -0.14901,-2.8125 -4.28395,-2.8125 -7.25604,0 -4.81574,5.106682 2.64332,5.53155 1.21869,0.06942 1.64063,-0.629878 1.64063,-2.71905 z m 67.5,-2.833166 c 5.41406,-0.469482 16.38281,-1.499393 24.375,-2.288693 7.99219,-0.7893 16.64062,-1.386468 19.21875,-1.327039 l 4.6875,0.108054 -4.21875,0.784084 c -2.32031,0.431246 -10.54688,1.330592 -18.28125,1.998547 l -14.0625,1.214463 27.59494,0.248811 c 17.40859,0.156965 27.93952,-0.09577 28.52841,-0.68466 0.60317,-0.603173 10.079,-0.726292 26.78006,-0.347953 27.46546,0.622193 59.64444,-0.499342 47.87784,-1.668686 -3.35156,-0.333073 -1.45313,-0.388634 4.21875,-0.12347 22.65068,1.058936 180.46878,-0.283482 180.46872,-1.535085 -3e-5,-0.540293 -76.1597,-1.28655 -147.37567,-1.444073 -18.06917,-0.03997 -31.24277,-0.421266 -30.77294,-0.890695 1.76329,-1.761785 19.752,-2.080923 52.52364,-0.931826 56.15904,1.969149 68.08866,2.228984 65.625,1.42936 -1.29064,-0.418901 10.08299,-0.697496 25.3125,-0.620026 33.089,0.168317 45.9375,-0.258379 45.9375,-1.525572 0,-0.603623 -5.22259,-0.742861 -14.76563,-0.393665 -34.49613,1.262273 -41.87355,1.375721 -40.07812,0.616309 1.03125,-0.436187 8.625,-1.06495 16.875,-1.39725 C 544.03,68.711743 551.25,68.202061 551.25,67.269936 c 0,-0.623509 -9.27215,-0.735439 -27.42188,-0.331028 -15.08203,0.336057 -58.64062,1.010546 -96.79687,1.498866 -107.11668,1.370867 -141.43941,2.045754 -142.96875,2.811193 -0.77344,0.387107 -12.375,0.946582 -25.78125,1.24328 -13.81426,0.305728 -23.35955,0.193968 -22.03125,-0.257949 1.53793,-0.523239 -1.9271,-0.829528 -10.07813,-0.890848 -7.71855,-0.05807 -12.42187,0.261517 -12.42187,0.84405 0,0.515625 -1.37109,1.020081 -3.04688,1.121012 -1.67578,0.100931 1.38282,0.417337 6.79688,0.703125 l 9.84375,0.519613 -14.0625,1.219096 c -18.97817,1.645242 -21.09375,2.018066 -21.09375,3.717301 0,1.173599 0.92124,1.304404 5.39062,0.765397 2.96485,-0.35756 9.82032,-1.03423 15.23438,-1.50371 z M 264.375,75.9375 c 1.28906,-0.41283 5.29687,-0.733253 8.90625,-0.712052 l 6.5625,0.03855 -5.15625,0.712786 c -7.25115,1.002378 -13.49088,0.978609 -10.3125,-0.03928 z m 74.76562,0.242297 c -3.66904,-0.190155 -6.32812,-0.749849 -6.32812,-1.331973 0,-0.583686 0.88308,-0.767353 2.10937,-0.438717 1.16016,0.31091 4.56006,0.571051 7.55534,0.578091 3.38899,0.008 5.2271,0.366899 4.86654,0.950302 -0.31867,0.515625 -0.87092,0.854872 -1.22721,0.753881 -0.35628,-0.100991 -3.49545,-0.331204 -6.97592,-0.511584 z m -48.51468,-2.497338 c -9.4e-4,-0.897753 40.23978,-0.0042 41.1579,0.913876 0.28491,0.284914 -8.85885,0.386826 -20.31947,0.22647 -11.59919,-0.162294 -20.83792,-0.667867 -20.83843,-1.140346 z M 348.75,73.016403 c 3.89982,-0.77711 10.0729,-0.4435 11.1172,0.600803 0.24492,0.244912 -3.10548,0.399071 -7.44532,0.342576 -7.29999,-0.09503 -7.57484,-0.165645 -3.67188,-0.943379 z m 122.58906,-0.55446 c 1.16616,-0.224244 2.85366,-0.21573 3.75,0.01892 0.89633,0.234648 -0.0579,0.418121 -2.12031,0.407715 -2.0625,-0.01041 -2.79586,-0.202392 -1.62969,-0.426635 z M 58.410237,66.495228 C 57.995544,66.092905 54.492187,64.510874 50.625,62.979602 l -7.03125,-2.784131 -0.297024,3.417889 c -0.611493,7.036501 -2.128823,5.391304 -3.283666,-3.560387 -0.232135,-1.799373 -14.94622,-7.725661 -15.793012,-6.36084 -0.778369,1.25454 -0.131754,8.271161 0.852973,9.255888 0.40058,0.40058 8.106617,3.845522 17.124528,7.655427 l 16.396201,6.927101 0.285237,-5.151912 c 0.156881,-2.833553 -0.05406,-5.481087 -0.46875,-5.883409 z m 142.972203,6.166677 c 10.25845,-0.871867 10.37647,-1.252868 0.41443,-1.337892 L 193.125,71.25 l 0.10875,2.578125 c 0.0608,1.439705 0.2917,1.886748 0.52307,1.012398 0.3224,-1.218359 2.0142,-1.701702 7.62562,-2.178618 z M 160.23438,72.560789 C 160.44922,72.35548 144.52343,72.1875 124.84375,72.1875 c -23.23344,0 -35.78125,0.328822 -35.78125,0.937668 0,0.89135 70.23132,0.334429 71.17188,-0.564379 z M 35.625,71.832487 c 0,-2.619423 -18.191374,-6.15939 -24.51493,-4.770503 -1.6503847,0.362485 -2.67257,0.199936 -2.67257,-0.424995 0,-0.634037 2.713523,-1.026007 7.265625,-1.049525 8.906741,-0.04601 5.914178,-2.915672 -3.261445,-3.127499 C 8.1404812,62.360669 7.4697558,62.105037 7.8345378,60.704059 8.0693532,59.802229 7.8792055,58.828112 7.4119874,58.539355 6.9331939,58.243445 6.5625,61.081098 6.5625,65.042164 l 0,7.02782 4.633571,-0.225711 c 2.548464,-0.124141 7.92737,0.04957 11.953125,0.386023 C 35.172378,73.235138 35.625,73.220705 35.625,71.832487 Z m 138.04687,0.606071 c -2.1914,-0.197377 -5.77734,-0.197377 -7.96875,0 -2.1914,0.197376 -0.39843,0.358866 3.98438,0.358866 4.38281,0 6.17578,-0.16149 3.98437,-0.358866 z m 14.76563,-0.223489 c 0,-0.530915 -1.65963,-0.68314 -3.98438,-0.365458 -5.46651,0.74701 -5.62834,1.275389 -0.39062,1.275389 2.40625,0 4.375,-0.409469 4.375,-0.909931 z m -21.09375,-3.31019 c 44.34375,-0.306595 85.05469,-0.730208 90.46875,-0.941361 5.41406,-0.211153 34.3125,-0.621667 64.21875,-0.912252 29.90625,-0.290586 61.33594,-0.720294 69.84375,-0.954908 8.50781,-0.234613 39.30469,-0.651305 68.4375,-0.925981 29.13281,-0.274676 60.77344,-0.761256 70.3125,-1.081289 l 17.34375,-0.581877 -7.5,-2.237348 c -7.35712,-2.194723 -8.02688,-2.228213 -35.15625,-1.757934 -15.21094,0.263677 -48.96094,0.694411 -75,0.957188 -26.03906,0.262777 -59.15625,0.697914 -73.59375,0.966973 -58.94663,1.098532 -170.51328,2.458456 -226.875,2.765456 -33,0.17975 -61.008596,0.710306 -62.241326,1.179016 -3.826229,1.45481 6.367218,4.767357 13.491326,4.384253 3.09375,-0.166368 41.90625,-0.553339 86.25,-0.859936 z M 108.75,62.326298 c 63.62314,-0.446154 171.23675,-1.559565 177.65625,-1.8381 3.09375,-0.134234 49.07812,-0.761375 102.1875,-1.393648 53.10937,-0.632272 105.41921,-1.425484 116.24408,-1.762693 l 19.68157,-0.613107 -9.26004,-2.668264 -9.26005,-2.668264 -39.48403,0.567222 c -21.71622,0.311972 -54.03872,0.776059 -71.82778,1.031307 -58.90073,0.845141 -96.51125,1.469155 -142.96875,2.372062 -25.26563,0.49104 -74.83594,1.116624 -110.15625,1.390184 -35.32031,0.27356 -71.127993,0.743704 -79.572623,1.044764 l -15.353875,0.547381 6.447625,2.693811 c 4.730734,1.976496 7.321362,2.547709 9.728873,2.14514 1.804687,-0.301769 22.476562,-0.683277 45.9375,-0.847795 z M 20.907229,51.469729 C 20.487831,51.050331 17.088694,49.446997 13.353593,47.906764 L 6.5625,45.106343 l 0.020677,5.337453 0.020677,5.337454 7.2449483,2.8125 7.244948,2.8125 0.288011,-4.586989 c 0.158406,-2.522844 -0.05513,-4.930133 -0.474532,-5.349532 z m 111.749021,3.355287 c 35.0625,-0.221219 70.5,-0.613046 78.75,-0.870727 8.25,-0.25768 30.39844,-0.696467 49.21875,-0.975083 18.82031,-0.278617 45.60937,-0.705298 59.53125,-0.948182 30.00775,-0.523521 73.67076,-1.170622 133.8678,-1.983966 24.12728,-0.325993 43.70241,-0.758099 43.50027,-0.960235 -0.20213,-0.202137 -4.12233,-1.460459 -8.71155,-2.796272 l -8.34402,-2.428751 -44.0625,0.591097 c -24.23438,0.325103 -50.17969,0.782848 -57.65625,1.01721 -7.47656,0.234364 -32.15625,0.654409 -54.84375,0.933435 -22.6875,0.279025 -48.21094,0.702551 -56.71875,0.941169 -8.50781,0.238618 -33.82031,0.66424 -56.25,0.945828 -22.42969,0.281587 -44.36719,0.696835 -48.75,0.922773 -4.38281,0.225936 -32.22656,0.688413 -61.875,1.027725 -29.648438,0.339313 -57.492188,0.88092 -61.875,1.203572 l -7.96875,0.586641 5.15625,2.109705 c 4.79846,1.963313 6.13204,2.074197 19.21875,1.597991 7.734375,-0.281442 42.75,-0.69271 77.8125,-0.91393 z m -11.25,-6.525298 c 22.17187,-0.347878 42,-0.775637 44.0625,-0.950575 2.0625,-0.174937 21.89062,-0.570368 44.0625,-0.878735 22.17187,-0.308368 47.0625,-0.761439 55.3125,-1.006825 8.25,-0.245385 31.66406,-0.681637 52.03125,-0.969447 20.36719,-0.28781 59.8125,-0.919074 87.65625,-1.402809 27.84375,-0.483735 54.84375,-0.913662 60,-0.955395 l 9.375,-0.07588 -7.5,-2.286301 c -7.20833,-2.197387 -8.26566,-2.26733 -27.1875,-1.798474 -10.82813,0.268305 -47.95313,0.899249 -82.5,1.402099 -34.54688,0.502848 -72.09375,1.131184 -83.4375,1.396302 -11.34375,0.26512 -55.85156,0.899054 -98.90625,1.408746 -43.05469,0.50969 -87.351563,1.132374 -98.4375,1.383741 -11.085938,0.251367 -30.070313,0.481927 -42.1875,0.512354 l -22.03125,0.05532 5.944694,2.565503 5.944694,2.565503 28.742806,-0.166312 c 15.808543,-0.09147 46.883431,-0.450938 69.055306,-0.798816 z m 20.15625,-8.466002 c 18.30469,-0.257777 45.9375,-0.674953 61.40625,-0.927058 15.46875,-0.252105 43.73437,-0.67548 62.8125,-0.940833 19.07812,-0.265353 42.28125,-0.684184 51.5625,-0.930736 9.28125,-0.246551 37.33594,-0.668783 62.34375,-0.938294 25.00781,-0.269511 52.28328,-0.73996 60.61214,-1.045444 l 15.1434,-0.555424 0.44756,-2.341269 c 1.04884,-5.486641 1.07938,-5.476618 -16.49014,-5.411255 -8.86557,0.03298 -17.38483,-0.225566 -18.93171,-0.574548 -1.54688,-0.348984 5.73047,-0.684429 16.17187,-0.745435 l 18.98438,-0.11092 0,-3.885974 0,-3.885974 -13.59375,0.624941 c -7.6003,0.349405 -13.59375,0.26395 -13.59375,-0.193822 0,-0.887402 11.90298,-2.019513 21.32812,-2.028552 5.97359,-0.0057 7.78304,-1.194546 3.46697,-2.27781 -1.31582,-0.33025 -13.21361,-0.812837 -26.43953,-1.072413 -13.22591,-0.259578 -24.27824,-0.71493 -24.56072,-1.011894 -0.28248,-0.296964 11.40438,-0.370829 25.97078,-0.164143 14.56641,0.206686 26.48438,0.136628 26.48438,-0.155684 0,-6.0354888 -6.34499,-7.6471766 -27.92199,-7.0924527 C 416.08354,4.4433453 372.53906,4.8954278 330,5.17335 287.46094,5.4512722 245.90625,5.8653487 237.65625,6.0935197 229.40625,6.3216907 176.89516,6.7688136 120.96493,7.087126 7.2621109,7.7342363 16.046008,7.1197161 11.196559,14.766505 c -4.7862416,7.547119 -4.1622539,8.649479 4.975316,8.789586 l 7.734375,0.118591 -6.5625,0.80904 C 5.7479623,25.913277 6.5625,25.202919 6.5625,33.886048 l 0,7.600325 50.859375,-0.591986 C 85.394531,40.568795 123.25781,40.091493 141.5625,39.833716 Z M 153.28125,35.5827 c -8.25,-0.352702 -22.38281,-0.767173 -31.40625,-0.921048 -10.69107,-0.182312 -14.61006,-0.485067 -11.25,-0.869104 10.97643,-1.25455 80.78065,0.738105 82.39462,2.352065 0.54855,0.54856 -20.83674,0.246164 -39.73837,-0.561913 z M 70.3125,33.691348 c -1.605353,-0.47395 -0.350077,-0.721389 3.984375,-0.785398 3.498601,-0.05167 6.328125,0.310439 6.328125,0.809833 0,1.02982 -6.796095,1.013718 -10.3125,-0.02443 z m 13.359375,0.349909 c 0.902344,-0.235807 2.378906,-0.235807 3.28125,0 0.902344,0.235807 0.164062,0.42874 -1.640625,0.42874 -1.804688,0 -2.542969,-0.192933 -1.640625,-0.42874 z M 15.322563,31.40625 c 0.195709,-0.572115 3.900709,-0.800777 9.506248,-0.586697 13.964421,0.533313 15.280758,1.573025 1.958741,1.547117 C 19.3514,32.352209 15.120218,31.997764 15.322563,31.40625 Z m 26.179654,0.756571 c 0.912157,-0.237697 2.177782,-0.222065 2.8125,0.03473 0.634718,0.256807 -0.111592,0.451287 -1.658467,0.43218 -1.546875,-0.0191 -2.06619,-0.229217 -1.154033,-0.466914 z M 114.84375,28.01774 c -14.36608,-0.735557 -13.81085,-0.658009 -13.0878,-1.827934 0.42038,-0.680198 -1.874147,-0.937792 -7.210294,-0.809456 -7.610172,0.183027 -8.76576,-0.09262 -8.131593,-1.939629 0.396109,-1.153672 10.867021,-2.685979 23.273437,-3.40582 5.41406,-0.314133 10.11635,-1.002159 10.44952,-1.528946 0.78236,-1.23702 54.94824,-1.123033 74.86298,0.157544 7.99219,0.51392 23.39062,1.166717 34.21875,1.450657 32.6578,0.856371 46.38744,1.596965 46.9662,2.533415 0.34148,0.552528 -3.65697,0.700887 -10.55194,0.391521 -6.10596,-0.273966 -18.69551,-0.729146 -27.97676,-1.01151 -20.33188,-0.618556 -36.44492,-1.253972 -47.8125,-1.885478 -31.34664,-1.741408 -78.74885,-1.308305 -60,0.548207 3.83642,0.379881 1.00449,0.624278 -8.90625,0.768616 -7.99219,0.116396 -16.21875,0.545693 -18.28125,0.953995 -2.24979,0.445379 0.65686,0.555556 7.26563,0.275406 7.9399,-0.33658 11.01562,-0.166299 11.01562,0.609855 0,0.696688 -2.2339,1.104396 -6.32812,1.154942 -14.13633,0.174523 -14.905786,1.381836 -1.46807,2.303473 10.59055,0.726361 60.14104,-0.0592 68.26494,-1.082261 3.67842,-0.46323 4.45481,-0.343114 3.60658,0.557976 -2.14339,2.276957 -41.17302,3.270052 -70.16908,1.785427 z m 257.8125,-1.810152 c -12.375,-0.911838 -26.92969,-1.934555 -32.34375,-2.272705 -5.41406,-0.33815 -17.1422,-1.221208 -26.06253,-1.962351 -8.92033,-0.741142 -18.83439,-1.377183 -22.03125,-1.413424 -3.19685,-0.03624 -6.65622,-0.457418 -7.68747,-0.935948 -1.80595,-0.838013 18.17927,-0.418926 25.78125,0.540628 1.80469,0.227796 14.03906,1.080514 27.1875,1.894929 30.11428,1.86528 67.61117,4.927454 68.25799,5.574271 0.77676,0.776763 -8.82847,0.36315 -33.10174,-1.4254 z M 9.9142809,21.676621 C 9.3723442,20.799749 19.036991,19.712019 27.65625,19.679809 c 3.838942,-0.01434 5.187106,-0.297953 4.2459,-0.89319 -2.307558,-1.459345 -0.730691,-1.906189 9.909868,-2.808206 14.409697,-1.221532 40.314243,-2.167174 39.592384,-1.445315 -0.33226,0.332261 -8.342769,0.970503 -17.801131,1.418315 C 43.104782,16.921927 33.75,17.811954 33.75,18.791695 c 0,0.396147 0.84375,0.499622 1.875,0.229945 1.03125,-0.269678 1.875,-0.05711 1.875,0.47236 0,0.542272 -3.582363,1.208907 -8.203125,1.526504 -4.511719,0.310102 -10.609274,0.761328 -13.550123,1.002725 -2.94085,0.241397 -5.565462,0.08543 -5.8324711,-0.346608 z M 270,18.729114 l -7.03125,-0.620589 8.68858,-0.03146 c 4.77871,-0.01731 8.91689,0.337964 9.19595,0.789488 0.27905,0.451524 -0.46674,0.744949 -1.65732,0.652055 -1.19059,-0.0929 -5.32877,-0.448167 -9.19596,-0.789491 z M 84.901712,14.101283 c 0.63467,-0.63658 10.148629,-1.139837 26.250008,-1.388538 23.88075,-0.368862 24.28558,-0.347939 7.44203,0.384609 -9.79687,0.426079 -21.609375,1.050922 -26.25,1.388539 -5.967642,0.434161 -8.146104,0.321576 -7.442038,-0.38461 z M 7.9850404,13.59375 9.77016,10.78125 7.7028413,12.562415 C 5.4414865,14.510757 3.4391829,20.31118 4.4645742,21.943269 4.8189271,22.507283 5.3543428,21.492187 5.6543867,19.6875 5.9544307,17.882812 7.0032248,15.140625 7.9850404,13.59375 Z"
     id="path4171"
     inkscape:connector-curvature="0" />
</svg>
